<svg width="20" height="18" viewBox="0 0 20 18" fill="none" xmlns="http://www.w3.org/2000/svg">
<path fill-rule="evenodd" clip-rule="evenodd" d="M19.0065 6.52425C19.0065 2.78558 16.9271 0.5625 13.6281 0.5625C12.1202 0.5625 10.9382 1.05962 10.0001 2.04549C9.06191 1.05962 7.87995 0.5625 6.37201 0.5625C3.07302 0.5625 0.993652 2.78558 0.993652 6.52425C0.993652 6.60074 0.995242 6.67745 0.998416 6.75437C1.09426 9.07695 2.57675 11.4807 5.29647 13.9896C6.15954 14.7858 7.10886 15.5537 8.11151 16.2749C8.43416 16.507 8.74658 16.7227 9.04071 16.9171C9.13639 16.9804 9.22555 17.0384 9.30625 17.0899L9.35354 17.1199L9.37885 17.1358L9.39882 17.1483L9.40779 17.1539L10.0001 17.5197L10.5915 17.1544C10.6757 17.1024 10.8061 17.0185 10.9594 16.9171C11.2535 16.7227 11.566 16.507 11.8886 16.2749C12.8913 15.5537 13.8406 14.7858 14.7037 13.9896C17.4234 11.4807 18.9059 9.07695 19.0017 6.75437C19.0049 6.67745 19.0065 6.60074 19.0065 6.52425ZM10.4423 16.1351C10.2965 16.2315 10.174 16.3104 10.0988 16.3568L10.0001 16.4178L9.90131 16.3568L9.89451 16.3526L9.87692 16.3416L9.85413 16.3272L9.80993 16.2992C9.7342 16.2508 9.64931 16.1956 9.55778 16.1351C9.27401 15.9475 8.9717 15.7388 8.65893 15.5138C7.68614 14.8141 6.76626 14.07 5.93215 13.3006C3.37736 10.9438 2.01868 8.74079 1.93512 6.71572C1.93247 6.65164 1.93115 6.58782 1.93115 6.52425C1.93115 3.28986 3.60531 1.5 6.37201 1.5C7.6945 1.5 8.66587 1.93804 9.4494 2.83255C9.48794 2.87654 9.54995 2.95406 9.62818 3.05601L10.0001 3.54066L10.3719 3.05601C10.4502 2.95406 10.5122 2.87654 10.5507 2.83255C11.3343 1.93804 12.3056 1.5 13.6281 1.5C16.3948 1.5 18.069 3.28986 18.069 6.52425C18.069 6.58782 18.0676 6.65164 18.065 6.71572C17.9814 8.74079 16.6228 10.9438 14.068 13.3006C13.2339 14.07 12.314 14.8141 11.3412 15.5138C11.0284 15.7388 10.7261 15.9475 10.4423 16.1351Z" fill="#333333"/>
</svg>
