<svg width="24" height="24" viewBox="0 0 24 24" fill="none" xmlns="http://www.w3.org/2000/svg">
<path d="M13.606 9.40027C13.606 10.063 13.0687 10.6003 12.406 10.6003C11.7433 10.6003 11.206 10.063 11.206 9.40027C11.206 8.73753 11.7433 8.20027 12.406 8.20027C13.0687 8.20027 13.606 8.73753 13.606 9.40027Z" fill="black" fill-opacity="0.8"/>
<path fill-rule="evenodd" clip-rule="evenodd" d="M12.8617 19.0269C16.1492 15.1695 17.81 11.9783 17.81 9.405C17.81 6.4199 15.3901 4 12.405 4C9.4199 4 7 6.4199 7 9.405C7 11.9783 8.6608 15.1695 11.9483 19.0269L12.405 19.5627L12.8617 19.0269ZM8.2 9.405C8.2 7.08264 10.0826 5.2 12.405 5.2C14.7274 5.2 16.61 7.08264 16.61 9.405C16.61 11.5137 15.2181 14.2938 12.405 17.7041C9.59194 14.2938 8.2 11.5137 8.2 9.405Z" fill="black" fill-opacity="0.8"/>
</svg>
